<mxfile host="app.diagrams.net" agent="Mozilla/5.0 (Windows NT 10.0; Win64; x64) AppleWebKit/537.36 (KHTML, like Gecko) Chrome/131.0.0.0 Safari/537.36" version="24.8.6">
  <diagram name="Page-1" id="b5b7bab2-c9e2-2cf4-8b2a-24fd1a2a6d21">
    <mxGraphModel dx="1433" dy="580" grid="1" gridSize="10" guides="1" tooltips="1" connect="1" arrows="1" fold="1" page="1" pageScale="1" pageWidth="827" pageHeight="1169" background="none" math="0" shadow="0">
      <root>
        <mxCell id="0" />
        <mxCell id="1" parent="0" />
        <mxCell id="6e0c8c40b5770093-7" value="" style="group" parent="1" vertex="1" connectable="0">
          <mxGeometry x="550" y="200" width="280" height="160" as="geometry" />
        </mxCell>
        <mxCell id="6e0c8c40b5770093-8" value="" style="shape=folder;fontStyle=1;spacingTop=10;tabWidth=50;tabHeight=17;tabPosition=left;html=1;rounded=0;shadow=0;comic=0;labelBackgroundColor=none;strokeWidth=1;fontFamily=Verdana;fontSize=10;align=center;" parent="6e0c8c40b5770093-7" vertex="1">
          <mxGeometry width="180" height="140" as="geometry" />
        </mxCell>
        <mxCell id="4u1Z3eDBRSlyZCAGoo01-2" value="&amp;lt;library&amp;gt;&lt;div&gt;generic&lt;/div&gt;" style="shape=module;align=left;spacingLeft=20;align=center;verticalAlign=top;whiteSpace=wrap;html=1;" vertex="1" parent="6e0c8c40b5770093-7">
          <mxGeometry x="30" y="70" width="100" height="50" as="geometry" />
        </mxCell>
        <mxCell id="4u1Z3eDBRSlyZCAGoo01-3" value="System.Collections" style="text;html=1;align=center;verticalAlign=middle;whiteSpace=wrap;rounded=0;" vertex="1" parent="6e0c8c40b5770093-7">
          <mxGeometry x="50" y="30" width="60" height="30" as="geometry" />
        </mxCell>
        <mxCell id="4u1Z3eDBRSlyZCAGoo01-5" value="" style="shape=folder;fontStyle=1;spacingTop=10;tabWidth=50;tabHeight=17;tabPosition=left;html=1;rounded=0;shadow=0;comic=0;labelBackgroundColor=none;strokeWidth=1;fontFamily=Verdana;fontSize=10;align=center;" vertex="1" parent="1">
          <mxGeometry x="810" y="200" width="180" height="140" as="geometry" />
        </mxCell>
        <mxCell id="4u1Z3eDBRSlyZCAGoo01-6" value="Основной пакет" style="text;html=1;align=center;verticalAlign=middle;whiteSpace=wrap;rounded=0;" vertex="1" parent="1">
          <mxGeometry x="870" y="265" width="60" height="30" as="geometry" />
        </mxCell>
        <mxCell id="4u1Z3eDBRSlyZCAGoo01-7" value="" style="endArrow=open;endSize=12;dashed=1;html=1;rounded=0;exitX=0;exitY=0;exitDx=0;exitDy=78.5;exitPerimeter=0;entryX=0;entryY=0;entryDx=180;entryDy=78.5;entryPerimeter=0;" edge="1" parent="1" source="4u1Z3eDBRSlyZCAGoo01-5" target="6e0c8c40b5770093-8">
          <mxGeometry width="160" relative="1" as="geometry">
            <mxPoint x="710" y="290" as="sourcePoint" />
            <mxPoint x="750" y="420" as="targetPoint" />
          </mxGeometry>
        </mxCell>
      </root>
    </mxGraphModel>
  </diagram>
</mxfile>
